<?xml version="1.0" encoding="UTF-8"?>
<svg id="Layer_2" data-name="Layer 2" xmlns="http://www.w3.org/2000/svg" viewBox="0 0 881.22 513.77">
  <defs>
    <style>
      .cls-1 {
        stroke-width: 0px;
      }

      .cls-1, .cls-2 {
        fill: #fff;
      }

      .cls-2 {
        font-family: GreatVibes-Regular, 'Great Vibes';
        font-size: 67.18px;
      }
    </style>
  </defs>
  <g id="Layer_1-2" data-name="Layer 1">
    <path class="cls-1" d="M117.56,141.11v32.04c0,1.97,1.6,3.57,3.57,3.57h51.64c1.97,0,3.57-1.6,3.57-3.57v-51.64c0-1.97-1.6-3.57-3.57-3.57h-32.04c-12.8,0-23.17,10.37-23.17,23.17ZM117.56,141.11v32.04c0,1.97,1.6,3.57,3.57,3.57h51.64c1.97,0,3.57-1.6,3.57-3.57v-51.64c0-1.97-1.6-3.57-3.57-3.57h-32.04c-12.8,0-23.17,10.37-23.17,23.17ZM117.56,141.11v32.04c0,1.97,1.6,3.57,3.57,3.57h51.64c1.97,0,3.57-1.6,3.57-3.57v-51.64c0-1.97-1.6-3.57-3.57-3.57h-32.04c-12.8,0-23.17,10.37-23.17,23.17ZM117.56,141.11v32.04c0,1.97,1.6,3.57,3.57,3.57h51.64c1.97,0,3.57-1.6,3.57-3.57v-51.64c0-1.97-1.6-3.57-3.57-3.57h-32.04c-12.8,0-23.17,10.37-23.17,23.17ZM117.56,141.11v32.04c0,1.97,1.6,3.57,3.57,3.57h51.64c1.97,0,3.57-1.6,3.57-3.57v-51.64c0-1.97-1.6-3.57-3.57-3.57h-32.04c-12.8,0-23.17,10.37-23.17,23.17ZM117.56,141.11v32.04c0,1.97,1.6,3.57,3.57,3.57h51.64c1.97,0,3.57-1.6,3.57-3.57v-51.64c0-1.97-1.6-3.57-3.57-3.57h-32.04c-12.8,0-23.17,10.37-23.17,23.17ZM0,106.66v301.61c0,1.97,1.6,3.57,3.57,3.57h0v.16h756.58c66.87,0,121.07-54.21,121.07-121.07V3.57C881.22,1.6,879.62,0,877.65,0L106.29.32C47.58.35,0,47.95,0,106.66ZM831.87,130.44h-51.64c-1.97,0-3.57,1.6-3.57,3.57v144.2c0,1.97,1.6,3.57,3.57,3.57h51.64c1.97,0,3.57,1.6,3.57,3.57v5.36c0,41.34-33.51,74.85-74.85,74.85h-122.93c-1.97,0-3.57-1.6-3.57-3.57v-76.64c0-1.97,1.6-3.57,3.57-3.57h51.65c1.97,0,3.57-1.6,3.57-3.57v-144.2c0-1.97-1.6-3.57-3.57-3.57h-51.65c-1.97,0-3.57-1.6-3.57-3.57v-5.36c0-41.34,33.51-74.85,74.85-74.85h122.93c1.97,0,3.57,1.6,3.57,3.57v76.64c0,1.97-1.6,3.57-3.57,3.57ZM482.75,152.77v137.94c0,41.34-33.51,74.85-74.85,74.85h-5.36c-1.97,0-3.57-1.6-3.57-3.57v-227.98c0-1.97-1.6-3.57-3.57-3.57h-7.88c-12.33,0-22.33,10-22.33,22.33v137.94c0,41.34-33.51,74.85-74.85,74.85h-5.36c-1.97,0-3.57-1.6-3.57-3.57V121.51c0-41.34,33.51-74.85,74.85-74.85h240.48c1.97,0,3.57,1.6,3.57,3.57v240.48c0,41.34-33.51,74.85-74.85,74.85h-5.36c-1.97,0-3.57-1.6-3.57-3.57v-227.98c0-1.97-1.6-3.57-3.57-3.57h-7.88c-12.33,0-22.33,10-22.33,22.33ZM130.06,275.32v86.67c0,1.97-1.6,3.57-3.57,3.57H49.85c-1.97,0-3.57-1.6-3.57-3.57V121.51c0-41.34,33.51-74.85,74.85-74.85h122.93c1.97,0,3.57,1.6,3.57,3.57v240.47c0,41.34-33.52,74.86-74.86,74.86h-5.36c-1.97,0-3.57-1.6-3.57-3.57v-110.42c0-1.97-1.6-3.57-3.57-3.57h-2.89c-15.09,0-27.32,12.23-27.32,27.32ZM172.77,117.94h-32.04c-12.8,0-23.17,10.37-23.17,23.17v32.04c0,1.97,1.6,3.57,3.57,3.57h51.64c1.97,0,3.57-1.6,3.57-3.57v-51.64c0-1.97-1.6-3.57-3.57-3.57ZM117.56,141.11v32.04c0,1.97,1.6,3.57,3.57,3.57h51.64c1.97,0,3.57-1.6,3.57-3.57v-51.64c0-1.97-1.6-3.57-3.57-3.57h-32.04c-12.8,0-23.17,10.37-23.17,23.17ZM117.56,141.11v32.04c0,1.97,1.6,3.57,3.57,3.57h51.64c1.97,0,3.57-1.6,3.57-3.57v-51.64c0-1.97-1.6-3.57-3.57-3.57h-32.04c-12.8,0-23.17,10.37-23.17,23.17ZM117.56,141.11v32.04c0,1.97,1.6,3.57,3.57,3.57h51.64c1.97,0,3.57-1.6,3.57-3.57v-51.64c0-1.97-1.6-3.57-3.57-3.57h-32.04c-12.8,0-23.17,10.37-23.17,23.17ZM117.56,141.11v32.04c0,1.97,1.6,3.57,3.57,3.57h51.64c1.97,0,3.57-1.6,3.57-3.57v-51.64c0-1.97-1.6-3.57-3.57-3.57h-32.04c-12.8,0-23.17,10.37-23.17,23.17Z"/>
    <text class="cls-2" transform="translate(242.29 486.83)"><tspan x="0" y="0">Adisa Made It</tspan></text>
  </g>
</svg>